<svg id="Layer_1" data-name="Layer 1" xmlns="http://www.w3.org/2000/svg" viewBox="0 0 534.52 105.13"><defs><style>.cls-1{fill:#6d6e71;}.cls-2{fill:#0b2a3a;}</style></defs><path class="cls-1" d="M72.59,110.27c0-5.18,3.42-11.87,12.5-11.87,7.54,0,12.23,4.39,12.23,11.32s-4.84,12.41-12.53,12.41C76.1,122.13,72.59,115.62,72.59,110.27Zm20.5.57c0-6.78-3.91-11-8.87-11-3.49,0-7.45,1.94-7.45,9.48,0,6.29,3.48,11.29,9.29,11.29C88.18,120.62,93.09,119.59,93.09,110.84Z" transform="translate(-7.64 -17)"/><path class="cls-1" d="M112.29,114.32c0,2.48,0,4.3.15,5.39.09.76.27,1.24,1.06,1.36a9.47,9.47,0,0,0,1.3.09c.33,0,.45.16.45.28s-.18.27-.57.27c-1.7,0-3.57-.09-4.27-.09s-2.39.09-3.39.09c-.36,0-.55-.06-.55-.27s.09-.28.4-.28a4,4,0,0,0,.94-.09c.54-.12.69-.6.78-1.36.12-1.09.12-3,.12-5.48v-4.54c0-3.9,0-4.63,0-5.45s-.3-1.18-1.15-1.39a4.9,4.9,0,0,0-1.06-.09c-.24,0-.45-.09-.45-.27s.21-.25.64-.25c1.36,0,3,.06,3.81.06,1,0,6.93,0,7.57,0a7.45,7.45,0,0,0,1.09-.12c.15,0,.27-.15.42-.15s.18.12.18.24-.12.49-.21,1.15c0,.28-.09,1.79-.12,2.09s-.09.52-.27.52-.33-.12-.33-.43a2,2,0,0,0-.16-1,1.82,1.82,0,0,0-1.69-.78l-4.42-.09c-.15,0-.24.06-.24.36v6.24c0,.15,0,.24.18.24l3.72,0c.46,0,.82,0,1.21,0a1.35,1.35,0,0,0,1.12-.46c.15-.15.21-.27.37-.27s.15.09.15.24-.12.85-.21,1.67c-.06.51-.1,1.69-.1,1.88s0,.57-.3.57-.24-.18-.24-.36A2.4,2.4,0,0,0,118,113a1.37,1.37,0,0,0-1.27-.94c-.67-.06-3.82-.09-4.27-.09-.12,0-.18,0-.18.21Z" transform="translate(-7.64 -17)"/><path class="cls-1" d="M135.42,114.32c0,2.48,0,4.3.15,5.39.09.76.27,1.24,1.06,1.36a9.47,9.47,0,0,0,1.3.09c.34,0,.46.16.46.28s-.18.27-.58.27c-1.69,0-3.57-.09-4.27-.09s-2.39.09-3.39.09c-.36,0-.54-.06-.54-.27s.09-.28.39-.28a4,4,0,0,0,.94-.09c.54-.12.7-.6.79-1.36.12-1.09.12-3,.12-5.48v-4.54c0-3.9,0-4.63,0-5.45s-.3-1.18-1.15-1.39a5,5,0,0,0-1.06-.09c-.24,0-.46-.09-.46-.27s.22-.25.64-.25c1.36,0,3.06.06,3.81.06,1,0,6.94,0,7.57,0a7.29,7.29,0,0,0,1.09-.12c.15,0,.27-.15.43-.15s.18.12.18.24-.12.49-.21,1.15c0,.28-.1,1.79-.13,2.09s-.09.52-.27.52-.33-.12-.33-.43a2.08,2.08,0,0,0-.15-1,1.84,1.84,0,0,0-1.7-.78l-4.42-.09c-.15,0-.24.06-.24.36v6.24c0,.15,0,.24.18.24l3.73,0c.45,0,.81,0,1.21,0a1.37,1.37,0,0,0,1.12-.46c.15-.15.21-.27.36-.27s.15.09.15.24-.12.85-.21,1.67c-.06.51-.09,1.69-.09,1.88s0,.57-.3.57-.25-.18-.25-.36a2.4,2.4,0,0,0-.18-.79,1.35,1.35,0,0,0-1.27-.94c-.67-.06-3.81-.09-4.27-.09-.12,0-.18,0-.18.21Z" transform="translate(-7.64 -17)"/><path class="cls-1" d="M155,109.69c0-3.9,0-4.63,0-5.45s-.33-1.18-.91-1.36a3.37,3.37,0,0,0-1-.12c-.28,0-.43-.06-.43-.31s.21-.21.64-.21c1,0,2.81.06,3.57.06s2.39-.06,3.42-.06c.33,0,.55.06.55.21s-.16.31-.43.31a3.83,3.83,0,0,0-.79.09c-.72.12-.93.48-1,1.39s-.07,1.55-.07,5.45v4.54c0,2.48,0,4.54.13,5.63.09.7.27,1.09,1.06,1.21a9.91,9.91,0,0,0,1.36.09c.3,0,.42.16.42.28s-.21.27-.51.27c-1.76,0-3.58-.09-4.3-.09s-2.42.09-3.48.09c-.34,0-.52-.09-.52-.27s.09-.28.43-.28a3.89,3.89,0,0,0,.93-.09c.55-.12.7-.48.79-1.24.12-1.06.12-3.12.12-5.6Z" transform="translate(-7.64 -17)"/><path class="cls-1" d="M174,119.26a9.94,9.94,0,0,1-.21-14.66c1.93-1.69,4.48-2.72,8.44-2.72a27.6,27.6,0,0,1,3.88.27c1,.15,1.87.34,2.66.43.3,0,.4.15.4.3s-.07.51-.13,1.42-.06,2.27-.09,2.79c0,.36-.12.63-.36.63s-.27-.21-.27-.54a3.63,3.63,0,0,0-1-2.39c-.91-.88-2.7-1.52-5.15-1.52s-3.81.43-5,1.46c-2,1.69-2.46,4.17-2.46,6.69a8.59,8.59,0,0,0,8.3,9c2.36,0,3.66-.18,4.72-1.36a4.16,4.16,0,0,0,.91-1.73c.06-.39.12-.52.33-.52s.31.25.31.46a23.31,23.31,0,0,1-.58,3.42.9.9,0,0,1-.7.76,15.72,15.72,0,0,1-4.81.57C179.51,122,176.42,121.29,174,119.26Z" transform="translate(-7.64 -17)"/><path class="cls-1" d="M201.49,109.69c0-3.9,0-4.63,0-5.45s-.3-1.15-1.15-1.39a4.9,4.9,0,0,0-1.06-.09c-.27,0-.45-.09-.45-.27s.21-.25.6-.25c1.4,0,3.09.06,3.85.06s6.75,0,7.26,0a11.07,11.07,0,0,0,1.12-.15,3.64,3.64,0,0,1,.43-.12c.15,0,.18.12.18.24a11.62,11.62,0,0,0-.21,1.67c0,.27-.09,1.39-.15,1.69,0,.12-.09.43-.31.43s-.21-.12-.21-.34a2.39,2.39,0,0,0-.18-.93c-.21-.46-.42-.82-1.76-.94-.45-.06-3.63-.12-4.17-.12-.12,0-.19.09-.19.24v6.36c0,.15,0,.27.19.27.6,0,4.05,0,4.66-.06a2,2,0,0,0,1.27-.4c.21-.18.3-.33.42-.33a.24.24,0,0,1,.22.27c0,.16-.06.58-.22,1.88-.06.52-.12,1.54-.12,1.73s0,.57-.27.57-.24-.09-.24-.21,0-.61-.09-.94c-.15-.51-.49-.91-1.49-1-.48-.06-3.51-.12-4.17-.12-.12,0-.16.12-.16.27v2.06c0,.88,0,3.06,0,3.82.07,1.75.88,2.15,3.61,2.15a7,7,0,0,0,2.51-.34c.67-.3,1-.84,1.15-1.9.06-.28.12-.4.3-.4s.25.34.25.61a17.5,17.5,0,0,1-.37,2.84c-.18.67-.42.67-1.42.67-2,0-3.6,0-4.91-.09s-2.3-.06-3.08-.06c-.31,0-.88,0-1.52,0s-1.3.06-1.84.06c-.34,0-.52-.09-.52-.27s.09-.28.43-.28a3.89,3.89,0,0,0,.93-.09c.55-.12.7-.6.79-1.36.12-1.09.12-3.12.12-5.48Z" transform="translate(-7.64 -17)"/><path class="cls-1" d="M241.76,107.6c0-4.6,0-5.45-.06-6.42s-.3-1.51-1.3-1.72a6.29,6.29,0,0,0-1.18-.09c-.33,0-.51-.06-.51-.28s.21-.27.66-.27c1.61,0,3.51.09,4.36.09,1.24,0,3-.09,4.39-.09,3.79,0,5.15,1.27,5.63,1.73a5.23,5.23,0,0,1,1.52,3.6,7.13,7.13,0,0,1-7.45,7.33,4.57,4.57,0,0,1-.64,0c-.15,0-.36-.06-.36-.28s.21-.33.85-.33c1.69,0,4.05-1.91,4.05-5a5.86,5.86,0,0,0-1.78-4.55,4.54,4.54,0,0,0-3-1.18,3.92,3.92,0,0,0-1.18.13c-.15.06-.24.24-.24.57v12.11c0,2.78,0,5.18.15,6.48.09.85.27,1.51,1.18,1.63a12.81,12.81,0,0,0,1.54.12c.34,0,.49.09.49.25s-.24.3-.58.3c-2,0-3.9-.09-4.69-.09s-2.6.09-3.81.09c-.4,0-.61-.09-.61-.3s.12-.25.48-.25a4.92,4.92,0,0,0,1.09-.12c.61-.12.76-.78.88-1.66.15-1.27.15-3.67.15-6.45Z" transform="translate(-7.64 -17)"/><path class="cls-1" d="M267.56,109.69c0-3.9,0-4.63,0-5.45s-.3-1.15-1.15-1.39a4.9,4.9,0,0,0-1.06-.09c-.27,0-.45-.09-.45-.27s.21-.25.6-.25c1.4,0,3.09.06,3.64.06.91,0,3.33-.06,4.14-.06a9.31,9.31,0,0,1,5.06,1.09,4.5,4.5,0,0,1,1.88,3.54c0,1.91-1.09,3.61-3.7,5.7,2.37,2.9,4.24,5.23,5.85,6.84a5,5,0,0,0,2.84,1.69,2.54,2.54,0,0,0,.64.06.31.31,0,0,1,.33.28c0,.21-.18.27-.51.27h-2.55a5.66,5.66,0,0,1-2.9-.52c-1.15-.57-2.15-1.78-3.64-3.78-1.06-1.39-2.18-3.12-2.51-3.51a.61.61,0,0,0-.48-.18l-2.39-.06a.19.19,0,0,0-.22.21v.36c0,2.39,0,4.39.15,5.48.1.76.22,1.24,1,1.36a10.31,10.31,0,0,0,1.31.09.31.31,0,0,1,.33.28c0,.18-.21.27-.55.27-1.54,0-3.75-.09-4.14-.09s-2.21.09-3.27.09c-.34,0-.52-.09-.52-.27s.09-.28.43-.28a3.89,3.89,0,0,0,.93-.09c.55-.12.7-.6.79-1.36.12-1.09.12-3.12.12-5.48Zm3.39,2c0,.27.06.36.25.45a7.32,7.32,0,0,0,2,.24,2.7,2.7,0,0,0,1.88-.42,4.33,4.33,0,0,0,1.73-3.81c0-3.64-2.49-4.57-4.06-4.57a9.62,9.62,0,0,0-1.57.09.31.31,0,0,0-.25.36Z" transform="translate(-7.64 -17)"/><path class="cls-1" d="M291.85,112c0-4.39,3.09-10.08,11.17-10.08,6.72,0,10.9,3.72,10.9,9.63S309.62,122,302.75,122C295,122,291.85,116.53,291.85,112Zm18.1.49c0-5.7-3.42-9.21-7.72-9.21-3,0-6.45,1.58-6.45,7.93,0,5.3,3,9.48,8.06,9.48C305.71,120.65,310,119.77,310,112.45Z" transform="translate(-7.64 -17)"/><path class="cls-1" d="M325.46,109.69c0-3.9,0-4.63,0-5.45s-.3-1.15-1.15-1.39a5,5,0,0,0-1.06-.09c-.27,0-.46-.09-.46-.27s.22-.25.61-.25c1.39,0,3.09.06,3.84.06,1.09,0,3.21-.06,4.42-.06,3.33,0,4.55,1.09,5,1.46a4.46,4.46,0,0,1,1.33,3.08c0,3.64-2.9,6.24-6.69,6.24a7,7,0,0,1-.79,0,.3.3,0,0,1-.33-.27c0-.21.3-.34.88-.34a4,4,0,0,0,3.57-4.17,4.8,4.8,0,0,0-1.57-3.82,4,4,0,0,0-2.67-1,4.23,4.23,0,0,0-1.15.12c-.15.07-.21.22-.21.49v10.2c0,2.36,0,4.39.12,5.51.09.73.24,1.21,1,1.33a10.35,10.35,0,0,0,1.36.09c.31,0,.43.16.43.28s-.21.27-.49.27c-1.78,0-3.66-.09-4.36-.09s-2.3.09-3.36.09c-.33,0-.51-.09-.51-.27s.09-.28.42-.28a3.92,3.92,0,0,0,.94-.09c.55-.12.7-.6.79-1.36.12-1.09.12-3.12.12-5.48Z" transform="translate(-7.64 -17)"/><path class="cls-1" d="M350.08,109.69c0-3.9,0-4.63,0-5.45s-.31-1.15-1.15-1.39a5,5,0,0,0-1.06-.09c-.28,0-.46-.09-.46-.27s.21-.25.61-.25c1.39,0,3.09.06,3.84.06s6.75,0,7.27,0,.91-.12,1.12-.15a3.08,3.08,0,0,1,.42-.12c.15,0,.18.12.18.24a11.62,11.62,0,0,0-.21,1.67c0,.27-.09,1.39-.15,1.69,0,.12-.09.43-.3.43s-.21-.12-.21-.34a2.43,2.43,0,0,0-.19-.93c-.21-.46-.42-.82-1.75-.94-.46-.06-3.64-.12-4.18-.12-.12,0-.18.09-.18.24v6.36c0,.15,0,.27.18.27.61,0,4.06,0,4.66-.06a2,2,0,0,0,1.27-.4c.22-.18.31-.33.43-.33a.24.24,0,0,1,.21.27c0,.16-.06.58-.21,1.88-.06.52-.12,1.54-.12,1.73s0,.57-.28.57-.24-.09-.24-.21,0-.61-.09-.94c-.15-.51-.48-.91-1.48-1-.49-.06-3.51-.12-4.18-.12-.12,0-.15.12-.15.27v2.06c0,.88,0,3.06,0,3.82.06,1.75.88,2.15,3.6,2.15a7,7,0,0,0,2.51-.34c.67-.3,1-.84,1.15-1.9.06-.28.13-.4.31-.4s.24.34.24.61a17.5,17.5,0,0,1-.36,2.84c-.19.67-.43.67-1.43.67-2,0-3.6,0-4.9-.09s-2.3-.06-3.09-.06c-.3,0-.88,0-1.51,0s-1.3.06-1.85.06c-.33,0-.51-.09-.51-.27s.09-.28.42-.28a4,4,0,0,0,.94-.09c.54-.12.69-.6.78-1.36.13-1.09.13-3.12.13-5.48Z" transform="translate(-7.64 -17)"/><path class="cls-1" d="M373.48,109.69c0-3.9,0-4.63,0-5.45s-.3-1.15-1.15-1.39a4.9,4.9,0,0,0-1.06-.09c-.27,0-.45-.09-.45-.27s.21-.25.6-.25c1.4,0,3.09.06,3.64.06.91,0,3.33-.06,4.14-.06a9.31,9.31,0,0,1,5.06,1.09,4.5,4.5,0,0,1,1.88,3.54c0,1.91-1.09,3.61-3.7,5.7,2.37,2.9,4.24,5.23,5.85,6.84a5,5,0,0,0,2.84,1.69,2.54,2.54,0,0,0,.64.06.31.31,0,0,1,.33.28c0,.21-.18.27-.51.27H389a5.66,5.66,0,0,1-2.9-.52c-1.15-.57-2.15-1.78-3.64-3.78-1.06-1.39-2.18-3.12-2.51-3.51a.61.61,0,0,0-.48-.18l-2.39-.06a.19.19,0,0,0-.22.21v.36c0,2.39,0,4.39.16,5.48.09.76.21,1.24,1,1.36a10.31,10.31,0,0,0,1.31.09.31.31,0,0,1,.33.28c0,.18-.21.27-.55.27-1.54,0-3.75-.09-4.14-.09s-2.21.09-3.27.09c-.34,0-.52-.09-.52-.27s.09-.28.43-.28a4,4,0,0,0,.94-.09c.54-.12.69-.6.78-1.36.12-1.09.12-3.12.12-5.48Zm3.39,2c0,.27.06.36.25.45a7.32,7.32,0,0,0,2,.24A2.7,2.7,0,0,0,381,112a4.33,4.33,0,0,0,1.73-3.81c0-3.64-2.49-4.57-4.06-4.57a9.62,9.62,0,0,0-1.57.09.31.31,0,0,0-.25.36Z" transform="translate(-7.64 -17)"/><path class="cls-1" d="M403.22,103.82l-4,.09c-1.54,0-2.18.21-2.57.79a3.37,3.37,0,0,0-.46.87c-.06.22-.12.34-.3.34s-.24-.16-.24-.43c0-.42.51-2.9.57-3.12s.16-.48.31-.48.48.21,1.15.3a25.15,25.15,0,0,0,2.66.12h10.81a12,12,0,0,0,1.82-.12c.42-.06.63-.12.72-.12s.21.15.21.55-.06,2.45-.06,3.11c0,.28-.09.43-.24.43s-.27-.12-.3-.52l0-.27c-.06-.66-.76-1.45-3.15-1.48l-3.36-.06v10.41c0,2.36,0,4.39.15,5.51.09.73.24,1.21,1,1.33a10,10,0,0,0,1.36.09c.31,0,.43.16.43.28s-.22.27-.52.27c-1.75,0-3.54-.09-4.3-.09-.6,0-2.42.09-3.48.09-.33,0-.51-.09-.51-.27s.09-.28.42-.28a3.81,3.81,0,0,0,.94-.09c.54-.12.7-.6.79-1.36.12-1.09.12-3.12.12-5.48Z" transform="translate(-7.64 -17)"/><path class="cls-1" d="M425.41,109.69c0-3.9,0-4.63,0-5.45s-.33-1.18-.91-1.36a3.37,3.37,0,0,0-1-.12c-.28,0-.43-.06-.43-.31s.21-.21.64-.21c1,0,2.81.06,3.57.06s2.39-.06,3.42-.06c.33,0,.55.06.55.21s-.16.31-.43.31a3.83,3.83,0,0,0-.79.09c-.72.12-.93.48-1,1.39s-.06,1.55-.06,5.45v4.54c0,2.48,0,4.54.12,5.63.09.7.27,1.09,1.06,1.21a9.91,9.91,0,0,0,1.36.09c.3,0,.42.16.42.28s-.21.27-.51.27c-1.76,0-3.57-.09-4.3-.09s-2.42.09-3.48.09c-.34,0-.52-.09-.52-.27s.09-.28.43-.28a3.89,3.89,0,0,0,.93-.09c.55-.12.7-.48.79-1.24.12-1.06.12-3.12.12-5.6Z" transform="translate(-7.64 -17)"/><path class="cls-1" d="M444.31,109.69c0-3.9,0-4.63,0-5.45s-.3-1.15-1.15-1.39a5,5,0,0,0-1.06-.09c-.27,0-.46-.09-.46-.27s.22-.25.61-.25c1.39,0,3.09.06,3.84.06s6.76,0,7.27,0,.91-.12,1.12-.15a3.08,3.08,0,0,1,.42-.12c.16,0,.19.12.19.24a10.69,10.69,0,0,0-.22,1.67c0,.27-.09,1.39-.15,1.69,0,.12-.09.43-.3.43s-.21-.12-.21-.34a2.39,2.39,0,0,0-.18-.93c-.22-.46-.43-.82-1.76-.94-.45-.06-3.63-.12-4.18-.12-.12,0-.18.09-.18.24v6.36c0,.15,0,.27.18.27.61,0,4.06,0,4.66-.06a2.08,2.08,0,0,0,1.28-.4c.21-.18.3-.33.42-.33a.24.24,0,0,1,.21.27c0,.16-.06.58-.21,1.88-.06.52-.12,1.54-.12,1.73s0,.57-.27.57-.25-.09-.25-.21,0-.61-.09-.94c-.15-.51-.48-.91-1.48-1-.48-.06-3.51-.12-4.18-.12-.12,0-.15.12-.15.27v2.06c0,.88,0,3.06,0,3.82.06,1.75.88,2.15,3.6,2.15A7.07,7.07,0,0,0,454,120c.66-.3,1-.84,1.15-1.9.06-.28.12-.4.3-.4s.24.34.24.61a17.5,17.5,0,0,1-.36,2.84c-.18.67-.43.67-1.42.67-2,0-3.61,0-4.91-.09s-2.3-.06-3.09-.06c-.3,0-.87,0-1.51,0s-1.3.06-1.85.06c-.33,0-.51-.09-.51-.27s.09-.28.42-.28a3.92,3.92,0,0,0,.94-.09c.55-.12.7-.6.79-1.36.12-1.09.12-3.12.12-5.48Z" transform="translate(-7.64 -17)"/><path class="cls-1" d="M466.87,121.38c-.43-.19-.52-.31-.52-.88,0-1.39.12-3,.15-3.42s.12-.67.34-.67.27.24.27.42a4.88,4.88,0,0,0,.24,1.34c.58,1.9,2.57,2.54,4.24,2.54,2.3,0,3.69-1.45,3.69-3.27,0-1.12-.27-2.24-2.63-3.63l-1.54-.91c-3.15-1.85-4.18-3.57-4.18-5.84,0-3.15,3-5.18,6.72-5.18a15.89,15.89,0,0,1,3.78.42c.24.06.37.15.37.34s-.1,1.06-.1,3.08c0,.55-.12.82-.33.82s-.27-.15-.27-.45a2.91,2.91,0,0,0-.7-1.7,3.58,3.58,0,0,0-3-1.21c-1.91,0-3.64,1-3.64,2.76,0,1.15.43,2.06,2.82,3.39l1.09.6c3.51,1.94,4.6,3.91,4.6,6.24a5.5,5.5,0,0,1-2.66,4.81A7.77,7.77,0,0,1,471.2,122,11.4,11.4,0,0,1,466.87,121.38Z" transform="translate(-7.64 -17)"/><path class="cls-2" d="M17.26,24.42c-1.75-4.17-3-5-5.76-5.76a11.74,11.74,0,0,0-2.95-.3c-.68,0-.91-.23-.91-.68,0-.61.83-.68,2-.68,4,0,8.33.23,11,.23,1.89,0,5.52-.23,9.31-.23.9,0,1.74.15,1.74.68s-.46.68-1.14.68a5.45,5.45,0,0,0-2.95.53,1.82,1.82,0,0,0-.76,1.59,22.63,22.63,0,0,0,1.74,5.83l13,34.37h.31C45.11,52.35,55,28,56.77,23a9.31,9.31,0,0,0,.68-2.8,1.45,1.45,0,0,0-1-1.44,10.2,10.2,0,0,0-3-.38c-.68,0-1.29-.07-1.29-.6s.68-.76,2.12-.76c3.79,0,7,.23,7.95.23,1.29,0,4.84-.23,7.11-.23,1,0,1.59.15,1.59.68s-.45.68-1.21.68a6.58,6.58,0,0,0-3.71.91c-1,.68-2.12,2-4.16,6.81-3,7.12-5,11.21-9.08,20.52-4.85,11-8.41,19.3-10.07,23.08-2,4.39-2.42,5.61-3.48,5.61s-1.44-1.06-2.88-4.62Z" transform="translate(-7.64 -17)"/><path class="cls-2" d="M81.9,58c-.38,0-.45.08-.6.46l-3.56,8.7a11.66,11.66,0,0,0-1,3.94c0,1.13.6,1.81,2.65,1.81h1c.83,0,1,.31,1,.69s-.38.68-1.06.68C78.12,74.23,75,74,72.9,74c-.69,0-4.24.23-7.73.23-.83,0-1.21-.16-1.21-.68a.67.67,0,0,1,.76-.69c.61,0,1.36-.07,2-.07,3-.46,4.16-2.42,5.52-5.68l17.41-40.2c.76-1.81,1.29-2.57,2-2.57,1,0,1.29.61,2,2,1.59,3.56,12.72,29.6,17,39.37,2.57,5.82,4.46,6.66,5.67,6.88a15.24,15.24,0,0,0,2.5.23c.61,0,.91.23.91.69s-.38.68-2.88.68c-2.34,0-7.19,0-12.79-.16-1.21-.07-2-.07-2-.52s.15-.61.84-.69a1,1,0,0,0,.6-1.43l-5.15-13a.63.63,0,0,0-.68-.46Zm14.23-3.56c.31,0,.38-.15.31-.38L90.15,37.89c-.07-.23-.15-.6-.3-.6s-.3.37-.38.6L83,53.94c-.15.3,0,.45.23.45Z" transform="translate(-7.64 -17)"/><path class="cls-2" d="M136.71,65.44c.15,5,1,6.51,2.27,7a11.26,11.26,0,0,0,3.48.45c.76,0,1.14.31,1.14.69s-.61.68-1.52.68c-4.31,0-7.42-.23-8.63-.23-.6,0-3.78.23-7.19.23-.91,0-1.51-.08-1.51-.68,0-.38.45-.69,1.06-.69a13.54,13.54,0,0,0,3-.3c1.74-.45,2-2.19,2-7.8l.61-38.15c0-1.28.45-2.19,1.13-2.19s1.74,1,2.88,2.12c.83.83,10.82,11.05,20.51,20.51,4.54,4.47,13.4,13.55,14.38,14.46h.31L170,32.89c-.08-3.93-.69-5.07-2.28-5.67a11.1,11.1,0,0,0-3.48-.38c-.83,0-1.06-.3-1.06-.68,0-.53.68-.61,1.67-.61,3.48,0,7,.15,8.48.15.75,0,3.25-.15,6.51-.15.91,0,1.51.08,1.51.61,0,.38-.38.68-1.13.68a6.68,6.68,0,0,0-2.05.23c-1.82.53-2.35,1.66-2.42,5.29L175,72.94c0,1.44-.53,2-1.06,2a4,4,0,0,1-2.72-1.36c-4.17-3.86-12.49-11.81-19.46-18.55-7.26-7-14.3-14.76-15.59-15.89H136Z" transform="translate(-7.64 -17)"/><path class="cls-2" d="M201.89,44.17c0-9.76,0-11.58-.08-13.62-.15-2.2-.76-2.88-2.88-3.48a11.66,11.66,0,0,0-2.64-.23c-.69,0-1.14-.23-1.14-.68s.53-.61,1.51-.61c3.49,0,7.72.15,9.62.15s6.81-.15,10.82-.15c8.33,0,19.53,0,26.8,7.34,3.33,3.34,6.28,8.71,6.28,16.36a24.89,24.89,0,0,1-7.27,17.93c-3,3-10.06,7.57-22.33,7.57-2.42,0-5.3-.22-7.94-.37S207.56,74,205.9,74c-.76,0-2.2.07-3.79.07s-3.25.16-4.61.16c-.84,0-1.29-.23-1.29-.68s.23-.69,1.06-.69a9.44,9.44,0,0,0,2.35-.23c1.36-.3,1.74-1.51,2-3.4.31-2.73.31-7.8.31-13.7Zm8.93,7.12c0,6.81.07,11.73.15,13,.08,1.59.23,3.86.76,4.54.83,1.21,3.48,2.58,8.7,2.58,6.06,0,10.52-1.06,14.54-4.39,4.31-3.56,5.67-9.32,5.67-16,0-8.17-3.25-13.47-6.2-16.05-6.13-5.45-13.4-6.13-18.63-6.13a13.8,13.8,0,0,0-4.08.46,1.12,1.12,0,0,0-.84,1.28c-.07,2.2-.07,7.5-.07,12.57Z" transform="translate(-7.64 -17)"/><path class="cls-2" d="M269.71,44.17c0-9.76,0-11.58-.07-13.62-.15-2.2-.76-2.88-2.88-3.48a11.69,11.69,0,0,0-2.65-.23c-.68,0-1.13-.23-1.13-.68s.53-.61,1.51-.61c3.48,0,7.72.15,9.61.15,2.13,0,16.88.08,18.17,0s2.27-.3,2.8-.37a7.46,7.46,0,0,1,1.06-.31c.38,0,.46.31.46.61a28.82,28.82,0,0,0-.54,4.16c-.07.68-.22,3.48-.37,4.24-.08.3-.23,1.06-.76,1.06s-.53-.3-.53-.83a6,6,0,0,0-.46-2.35c-.52-1.14-1.06-2-4.38-2.35-1.14-.15-9.09-.3-10.45-.3-.3,0-.45.23-.45.61V45.76c0,.38.07.68.45.68,1.51,0,10.14,0,11.66-.15a5.25,5.25,0,0,0,3.17-1c.54-.45.76-.83,1.06-.83a.61.61,0,0,1,.54.68c0,.38-.16,1.44-.54,4.69-.14,1.29-.3,3.86-.3,4.32s-.07,1.43-.68,1.43c-.45,0-.6-.23-.6-.53-.08-.68-.08-1.51-.23-2.34-.38-1.29-1.21-2.27-3.71-2.5-1.21-.15-8.78-.3-10.44-.3-.31,0-.38.3-.38.68v5.14c0,2.2-.08,7.65,0,9.54.15,4.39,2.19,5.38,9,5.38a17.85,17.85,0,0,0,6.27-.84c1.67-.75,2.43-2.11,2.88-4.77.15-.68.3-1,.76-1s.61.84.61,1.52a43.18,43.18,0,0,1-.91,7.11c-.46,1.67-1.06,1.67-3.56,1.67-5,0-9-.08-12.26-.23s-5.76-.15-7.72-.15c-.76,0-2.2.07-3.79.07s-3.25.16-4.62.16c-.83,0-1.28-.23-1.28-.68s.23-.69,1.06-.69a9.3,9.3,0,0,0,2.34-.23c1.37-.3,1.74-1.51,2-3.4.3-2.73.3-7.8.3-13.7Z" transform="translate(-7.64 -17)"/><path class="cls-2" d="M317.48,44.17c0-9.76,0-11.58-.08-13.62-.15-2.2-.75-2.88-2.87-3.48a11.75,11.75,0,0,0-2.65-.23c-.68,0-1.14-.23-1.14-.68s.53-.61,1.52-.61c3.48,0,7.72.15,9.08.15,2.27,0,8.32-.15,10.37-.15,4.24,0,9.08.38,12.64,2.73A11.23,11.23,0,0,1,349,37.13c0,4.77-2.72,9-9.23,14.23,5.91,7.27,20.69,25.72,24.7,29.73,3.71,3.71,6.06,4,7.12,4.24a6.27,6.27,0,0,0,1.59.15.77.77,0,0,1,.83.68c0,.53-.45.68-1.29.68h-6.35c-3.71,0-5.53-.38-7.27-1.28-2.88-1.44-15.47-17.09-19.18-22.08-2.65-3.49-5.45-7.8-6.28-8.79a1.56,1.56,0,0,0-1.21-.45l-6-.15a.48.48,0,0,0-.53.53v.91c0,6,.07,11,.38,13.7.23,1.89.53,3.1,2.57,3.4a23.74,23.74,0,0,0,3.25.23.77.77,0,0,1,.84.69c0,.45-.53.68-1.36.68-3.87,0-9.39-.23-10.38-.23-1.28,0-5.52.23-8.17.23-.83,0-1.29-.23-1.29-.68s.23-.69,1.06-.69a9.44,9.44,0,0,0,2.35-.23c1.36-.3,1.74-1.51,2-3.4.3-2.73.3-7.8.3-13.7Zm8.48,5c0,.68.15.91.61,1.14a18.36,18.36,0,0,0,5.07.6c2.64,0,3.56-.23,4.69-1.06,2-1.44,4.31-4.24,4.31-9.54,0-9.08-6.2-11.43-10.14-11.43a24.06,24.06,0,0,0-3.93.23c-.46.15-.61.38-.61.91Z" transform="translate(-7.64 -17)"/><path class="cls-2" d="M375.09,44.17c0-9.76,0-11.58-.08-13.62-.15-2.2-.75-2.88-2.88-3.48a11.6,11.6,0,0,0-2.64-.23c-.68,0-1.14-.23-1.14-.68s.53-.61,1.52-.61c3.48,0,7.71.15,9,.15,3.33,0,7.72-.15,10-.15,12,0,14.15,6.21,14.15,9.62,0,5-3.71,8.85-7.49,11.27,5.44,1.75,12.26,6.36,12.26,13.93,0,6.89-5.45,14-17.71,14-.76,0-3-.08-5.3-.23S380.16,74,379.1,74c-.76,0-2.2.07-3.78.07s-3.26.16-4.62.16c-.83,0-1.29-.23-1.29-.68s.23-.69,1.06-.69a9.44,9.44,0,0,0,2.35-.23c1.36-.3,1.74-1.51,2-3.4.3-2.73.3-7.8.3-13.7Zm8.63,1.06c0,.53.23.61.45.68a13.64,13.64,0,0,0,3.1.23c2.2,0,4.09-.23,5.23-1.13a8.46,8.46,0,0,0,3-6.82c0-4.31-2.58-9.69-8.33-9.69a16.11,16.11,0,0,0-2.88.16c-.45.07-.6.37-.6,1.06Zm0,18.93c0,4.24.23,5.52,2.35,6.36a12.26,12.26,0,0,0,4.76.75c3.56,0,8.18-2,8.18-9.08a14.11,14.11,0,0,0-6.29-11.43A9.45,9.45,0,0,0,387,49.09h-2.88c-.22,0-.37.08-.37.46Z" transform="translate(-7.64 -17)"/><path class="cls-2" d="M426.18,44.17c0-9.76,0-11.58-.07-13.62-.15-2.2-.83-2.95-2.27-3.41a8.41,8.41,0,0,0-2.42-.3c-.68,0-1.06-.15-1.06-.76,0-.38.53-.53,1.59-.53,2.49,0,7,.15,8.93.15,1.67,0,6-.15,8.55-.15.83,0,1.37.15,1.37.53,0,.61-.38.76-1.06.76a8.71,8.71,0,0,0-2,.23c-1.82.3-2.35,1.21-2.5,3.48-.15,2-.15,3.86-.15,13.62V55.53c0,6.21,0,11.35.3,14.08.23,1.74.68,2.72,2.65,3a23.62,23.62,0,0,0,3.41.23c.76,0,1.06.38,1.06.69s-.53.68-1.29.68c-4.39,0-8.93-.23-10.75-.23-1.51,0-6.06.23-8.7.23-.84,0-1.29-.23-1.29-.68s.23-.69,1.06-.69a9.44,9.44,0,0,0,2.35-.23c1.36-.3,1.74-1.2,2-3.1.3-2.65.3-7.79.3-14Z" transform="translate(-7.64 -17)"/><path class="cls-2" d="M471.6,55.53c0,8.25,0,12.34,1.44,13.55,1.14,1,3.71,1.36,8.86,1.36,3.56,0,6.13-.07,7.8-1.82a7.7,7.7,0,0,0,1.66-3.86c.08-.6.23-1,.76-1s.61.68.61,1.44a49,49,0,0,1-1,7.41c-.45,1.44-.76,1.75-4.24,1.75-4.77,0-8.63-.08-12-.23s-6.13-.15-8.85-.15c-.76,0-2.2.07-3.79.07s-3.25.16-4.62.16c-.83,0-1.28-.23-1.28-.68s.22-.69,1.06-.69a9.3,9.3,0,0,0,2.34-.23c1.37-.3,1.74-1.51,2-3.4.3-2.73.3-7.8.3-13.7V44.17c0-9.76,0-11.58-.07-13.62-.15-2.2-.76-2.88-2.88-3.48a8.44,8.44,0,0,0-2.19-.23c-.76,0-1.14-.23-1.14-.68s.45-.61,1.44-.61c3.1,0,7.34.15,9.16.15,1.59,0,7-.15,9.61-.15,1,0,1.44.15,1.44.61s-.38.68-1.21.68a13.88,13.88,0,0,0-2.57.23c-1.82.3-2.35,1.21-2.5,3.48-.16,2-.16,3.86-.16,13.62Z" transform="translate(-7.64 -17)"/><path class="cls-2" d="M515.36,29.49l-9.92.23c-3.86.07-5.44.53-6.43,2a7.55,7.55,0,0,0-1.13,2.2c-.16.53-.31.83-.76.83s-.61-.38-.61-1.06c0-1.06,1.29-7.27,1.44-7.8.15-.83.38-1.21.75-1.21.54,0,1.22.53,2.88.76a61.9,61.9,0,0,0,6.67.3h27a29.68,29.68,0,0,0,4.54-.3c1.06-.15,1.59-.3,1.82-.3.45,0,.53.38.53,1.36,0,1.36-.15,6.13-.15,7.8-.08.68-.23,1.06-.61,1.06s-.68-.31-.75-1.29l-.08-.68c-.16-1.67-1.9-3.63-7.87-3.71l-8.41-.15v26c0,5.9.08,11,.38,13.77.23,1.82.61,3,2.58,3.33a23.48,23.48,0,0,0,3.4.23c.76,0,1.06.38,1.06.69s-.53.68-1.29.68c-4.39,0-8.85-.23-10.74-.23-1.52,0-6.06.23-8.71.23-.83,0-1.28-.23-1.28-.68s.22-.69,1.06-.69a8.93,8.93,0,0,0,2.34-.23c1.36-.3,1.74-1.51,2-3.4.3-2.73.3-7.8.3-13.7Z" transform="translate(-7.64 -17)"/></svg>